<mxfile host="app.diagrams.net" modified="2021-06-08T00:14:42.257Z" agent="5.0 (Macintosh; Intel Mac OS X 10_15_7) AppleWebKit/537.36 (KHTML, like Gecko) Chrome/91.0.4472.77 Safari/537.36" etag="qQ7cobiZ1Q849BSxXcui" version="14.7.6" type="github">
  <diagram id="E7BHa-vGDW6HazJa4yAq" name="Page-1">
    <mxGraphModel dx="636" dy="834" grid="1" gridSize="10" guides="1" tooltips="1" connect="1" arrows="1" fold="1" page="1" pageScale="1" pageWidth="827" pageHeight="1169" math="0" shadow="0">
      <root>
        <mxCell id="0" />
        <mxCell id="1" parent="0" />
        <mxCell id="Qb1STWMjwkGjTdo8xHke-4" value="" style="rounded=1;whiteSpace=wrap;html=1;fillColor=#f5f5f5;strokeColor=#666666;fontColor=#333333;" vertex="1" parent="1">
          <mxGeometry x="165" y="80" width="425" height="550" as="geometry" />
        </mxCell>
        <mxCell id="Qb1STWMjwkGjTdo8xHke-1" value="CPU" style="ellipse;shape=cloud;whiteSpace=wrap;html=1;fillColor=#d5e8d4;strokeColor=#82b366;" vertex="1" parent="1">
          <mxGeometry x="270" y="150" width="120" height="80" as="geometry" />
        </mxCell>
        <mxCell id="Qb1STWMjwkGjTdo8xHke-2" value="内存" style="rounded=1;whiteSpace=wrap;html=1;fillColor=#fff2cc;strokeColor=#d6b656;" vertex="1" parent="1">
          <mxGeometry x="270" y="280" width="120" height="60" as="geometry" />
        </mxCell>
        <mxCell id="Qb1STWMjwkGjTdo8xHke-3" value="磁盘" style="shape=cylinder3;whiteSpace=wrap;html=1;boundedLbl=1;backgroundOutline=1;size=15;fillColor=#e1d5e7;strokeColor=#9673a6;" vertex="1" parent="1">
          <mxGeometry x="285" y="410" width="90" height="100" as="geometry" />
        </mxCell>
        <mxCell id="Qb1STWMjwkGjTdo8xHke-5" value="20～40ns,1-32MB" style="text;html=1;strokeColor=none;fillColor=none;align=center;verticalAlign=middle;whiteSpace=wrap;rounded=0;" vertex="1" parent="1">
          <mxGeometry x="414" y="180" width="110" height="20" as="geometry" />
        </mxCell>
        <mxCell id="Qb1STWMjwkGjTdo8xHke-6" value="100ns,32-96GB" style="text;html=1;strokeColor=none;fillColor=none;align=center;verticalAlign=middle;whiteSpace=wrap;rounded=0;" vertex="1" parent="1">
          <mxGeometry x="414" y="300" width="110" height="20" as="geometry" />
        </mxCell>
        <mxCell id="Qb1STWMjwkGjTdo8xHke-7" value="3~5ms,1-4TB" style="text;html=1;strokeColor=none;fillColor=none;align=center;verticalAlign=middle;whiteSpace=wrap;rounded=0;" vertex="1" parent="1">
          <mxGeometry x="414" y="450" width="110" height="20" as="geometry" />
        </mxCell>
        <mxCell id="Qb1STWMjwkGjTdo8xHke-8" value="" style="rounded=1;whiteSpace=wrap;html=1;fillColor=#f5f5f5;strokeColor=#666666;fontColor=#333333;" vertex="1" parent="1">
          <mxGeometry x="180" y="770" width="425" height="550" as="geometry" />
        </mxCell>
        <mxCell id="Qb1STWMjwkGjTdo8xHke-9" value="" style="ellipse;shape=cloud;whiteSpace=wrap;html=1;fillColor=#d5e8d4;strokeColor=#82b366;" vertex="1" parent="1">
          <mxGeometry x="285" y="840" width="120" height="80" as="geometry" />
        </mxCell>
        <mxCell id="Qb1STWMjwkGjTdo8xHke-10" value="" style="rounded=1;whiteSpace=wrap;html=1;fillColor=#fff2cc;strokeColor=#d6b656;" vertex="1" parent="1">
          <mxGeometry x="285" y="970" width="120" height="60" as="geometry" />
        </mxCell>
        <mxCell id="Qb1STWMjwkGjTdo8xHke-11" value="磁盘" style="shape=cylinder3;whiteSpace=wrap;html=1;boundedLbl=1;backgroundOutline=1;size=15;fillColor=#e1d5e7;strokeColor=#9673a6;" vertex="1" parent="1">
          <mxGeometry x="300" y="1100" width="90" height="100" as="geometry" />
        </mxCell>
        <mxCell id="Qb1STWMjwkGjTdo8xHke-12" value="cpu" style="text;html=1;strokeColor=none;fillColor=none;align=center;verticalAlign=middle;whiteSpace=wrap;rounded=0;" vertex="1" parent="1">
          <mxGeometry x="210" y="870" width="110" height="20" as="geometry" />
        </mxCell>
        <mxCell id="Qb1STWMjwkGjTdo8xHke-13" value="内存" style="text;html=1;strokeColor=none;fillColor=none;align=center;verticalAlign=middle;whiteSpace=wrap;rounded=0;" vertex="1" parent="1">
          <mxGeometry x="190" y="982.5" width="110" height="20" as="geometry" />
        </mxCell>
        <mxCell id="Qb1STWMjwkGjTdo8xHke-14" value="避免每次访问内存" style="text;html=1;strokeColor=none;fillColor=none;align=center;verticalAlign=middle;whiteSpace=wrap;rounded=0;" vertex="1" parent="1">
          <mxGeometry x="350" y="930" width="110" height="20" as="geometry" />
        </mxCell>
        <mxCell id="Qb1STWMjwkGjTdo8xHke-17" style="edgeStyle=orthogonalEdgeStyle;rounded=0;orthogonalLoop=1;jettySize=auto;html=1;" edge="1" parent="1" source="Qb1STWMjwkGjTdo8xHke-15" target="Qb1STWMjwkGjTdo8xHke-16">
          <mxGeometry relative="1" as="geometry" />
        </mxCell>
        <mxCell id="Qb1STWMjwkGjTdo8xHke-15" value="LLC" style="rounded=1;whiteSpace=wrap;html=1;fillColor=#dae8fc;strokeColor=#6c8ebf;" vertex="1" parent="1">
          <mxGeometry x="322.25" y="865" width="45.5" height="30" as="geometry" />
        </mxCell>
        <mxCell id="Qb1STWMjwkGjTdo8xHke-18" style="edgeStyle=orthogonalEdgeStyle;rounded=0;orthogonalLoop=1;jettySize=auto;html=1;" edge="1" parent="1" source="Qb1STWMjwkGjTdo8xHke-16" target="Qb1STWMjwkGjTdo8xHke-11">
          <mxGeometry relative="1" as="geometry" />
        </mxCell>
        <mxCell id="Qb1STWMjwkGjTdo8xHke-16" value="page cache" style="rounded=1;whiteSpace=wrap;html=1;fillColor=#d5e8d4;strokeColor=#82b366;" vertex="1" parent="1">
          <mxGeometry x="311.13" y="982.5" width="67.75" height="35" as="geometry" />
        </mxCell>
        <mxCell id="Qb1STWMjwkGjTdo8xHke-20" value="避免每次访问磁盘" style="text;html=1;strokeColor=none;fillColor=none;align=center;verticalAlign=middle;whiteSpace=wrap;rounded=0;" vertex="1" parent="1">
          <mxGeometry x="350" y="1060" width="110" height="20" as="geometry" />
        </mxCell>
        <mxCell id="Qb1STWMjwkGjTdo8xHke-21" value="" style="rounded=1;whiteSpace=wrap;html=1;fillColor=#f5f5f5;strokeColor=#666666;fontColor=#333333;" vertex="1" parent="1">
          <mxGeometry x="180" y="1450" width="425" height="550" as="geometry" />
        </mxCell>
        <mxCell id="Qb1STWMjwkGjTdo8xHke-23" value="" style="shape=image;imageAspect=0;aspect=fixed;verticalLabelPosition=bottom;verticalAlign=top;image=https://gimg2.baidu.com/image_search/src=http%3A%2F%2Fpic1.zhimg.com%2Fv2-e49b4c357bc386bf205ec2b4dbb5d3d9_1440w.jpg%3Fsource%3D172ae18b&amp;refer=http%3A%2F%2Fpic1.zhimg.com&amp;app=2002&amp;size=f9999,10000&amp;q=a80&amp;n=0&amp;g=0n&amp;fmt=jpeg?sec=1625701075&amp;t=1c354230e3eb935685f6e6589b8efe7b;" vertex="1" parent="1">
          <mxGeometry x="150.39" y="1490" width="389.22" height="250" as="geometry" />
        </mxCell>
      </root>
    </mxGraphModel>
  </diagram>
</mxfile>
